IKResults																																														
version=1																																														
nRows=9																																														
nColumns=47																																														
inDegrees=yes																																														
																																														
"Units are S.I. units (second, meters, Newtons, ...)"																																														
"If the header above contains a line with 'inDegrees', this indicates whether rotational values are in degrees (yes) or radians (no)."																																														
																																														
endheader																																														
time	r_x	r_y	r_z	t_x	t_y	t_z	sternoclavicular_r2_r	sternoclavicular_r3_r	unrotscap_r3_r	unrotscap_r2_r	acromioclavicular_r2_r	acromioclavicular_r3_r	acromioclavicular_r1_r	unrothum_r1_r	unrothum_r3_r	unrothum_r2_r	elv_angle_r	shoulder_elv_r	shoulder1_r2_r	shoulder_rot_r	elbow_flexion_r	pro_sup_r	deviation_r	flexion_r	wrist_hand_r1_r	wrist_hand_r3_r	sternoclavicular_r2_l	sternoclavicular_r3_l	unrotscap_r3_l	unrotscap_r2_l	acromioclavicular_r2_l	acromioclavicular_r3_l	acromioclavicular_r1_l	unrothum_r1_l	unrothum_r3_l	unrothum_r2_l	elv_angle_l	shoulder_elv_l	shoulder1_r2_l	shoulder_rot_l	elbow_flexion_l	pro_sup_l	deviation_l	flexion_l	wrist_hand_r1_l	wrist_hand_r3_l
0	-0.5979205	-4.97797685	-9.63109721	0.26195308	1.29145267	-0.22219811	0.60459482	-8.44767249	8.44767249	-0.60459482	14.93622425	-4.64140344	24.55922163	-24.55922163	4.64140344	-14.93622425	61.58592361	4.06057208	-61.58592361	-19.84050883	16.57619784	-29.39793988	0.09157749	0.17923543	6.72766143	5.13471684	0.30814131	-9.6843546	9.6843546	-0.30814131	14.91421272	-8.24234234	26.6692864	-26.6692864	8.24234234	-14.91421272	81.8877395	3.72703052	-81.8877395	-7.53779999	18.09911729	-14.64805229	0.13367364	0.10157678	9.55627208	2.90996052
0.005	-0.56627123	-5.0782151	-9.783024	0.26188436	1.29122208	-0.22209003	0.80523284	-8.18579793	8.18579793	-0.80523284	15.27750961	-4.43506984	24.58611052	-24.58611052	4.43506984	-15.27750961	63.15317325	4.32379714	-63.15317325	-19.50551048	16.25409077	-31.05801199	0.07792535	0.17304727	5.77457951	4.95743902	0.48415695	-9.66360098	9.66360098	-0.48415695	15.10075077	-8.24861424	26.62474427	-26.62474427	8.24861424	-15.10075077	82.4895737	3.75932622	-82.4895737	-7.45500158	18.10346082	-15.14755558	0.12725278	0.09941477	9.13556155	2.84802345
0.01	-0.538132	-5.16212273	-9.97656838	0.26173154	1.2909571	-0.22198157	0.97828696	-7.93991962	7.93991962	-0.97828696	15.58032452	-4.23599766	24.61117476	-24.61117476	4.23599766	-15.58032452	64.54647554	4.61871127	-64.54647554	-19.55376271	16.05877602	-31.28063747	0.07274128	0.17153676	5.40810908	4.91416609	0.67192882	-9.62562622	9.62562622	-0.67192882	15.30228468	-8.23556816	26.57509054	-26.57509054	8.23556816	-15.30228468	83.13662436	3.88017561	-83.13662436	-7.40244517	18.09192526	-15.4067455	0.12458014	0.09829156	8.95932618	2.81584569
0.015	-0.60695792	-5.06249834	-9.81590485	0.26193506	1.29121857	-0.22214395	0.78942208	-8.18078999	8.18078999	-0.78942208	15.2614464	-4.42427643	24.58639121	-24.58639121	4.42427643	-15.2614464	63.08288986	4.39005957	-63.08288986	-19.65581277	16.2731811	-30.87321761	0.07578977	0.16960007	5.62391362	4.85868418	0.50740968	-9.6544371	9.6544371	-0.50740968	15.12642243	-8.2414381	26.61799345	-26.61799345	8.2414381	-15.12642243	82.57111538	3.7986326	-82.57111538	-7.50011642	18.1187887	-15.28630832	0.12771102	0.09751961	9.1657145	2.79373094
0.02	-0.63196888	-5.02304044	-9.85444866	0.26193917	1.29120632	-0.22219895	0.77546965	-8.17880342	8.17880342	-0.77546965	15.24624369	-4.41731803	24.58641128	-24.58641128	4.41731803	-15.24624369	63.0158185	4.44027999	-63.0158185	-19.98176367	16.20820608	-30.36523583	0.07082049	0.1778232	5.27167737	5.09425944	0.59364198	-9.64179969	9.64179969	-0.59364198	15.21820549	-8.24143222	26.59583842	-26.59583842	8.24143222	-15.21820549	82.86674454	3.82793082	-82.86674454	-7.62154531	18.10840769	-14.5672474	0.1244827	0.09415235	8.95286721	2.69726627
0.025	-0.60206971	-5.1475596	-10.04418964	0.26181555	1.29092276	-0.22205544	0.97128915	-7.90584626	7.90584626	-0.97128915	15.58666975	-4.19761369	24.61427993	-24.61427993	4.19761369	-15.58666975	64.58148081	4.75612188	-64.58148081	-20.00589232	16.02165062	-30.88160309	0.0687008	0.17502861	5.12073372	5.01420029	0.69627306	-9.61209969	9.61209969	-0.69627306	15.32979139	-8.22315366	26.56749223	-26.56749223	8.22315366	-15.32979139	83.22324024	3.94278295	-83.22324024	-7.71419317	18.13289126	-15.01049305	0.12632834	0.10300716	9.07467254	2.95093783
0.03	-0.63417317	-5.05719158	-9.94673561	0.26196659	1.29116613	-0.22217608	0.81990713	-8.08156982	8.08156982	-0.81990713	15.33840213	-4.33023049	24.59603783	-24.59603783	4.33023049	-15.33840213	63.44435541	4.63168927	-63.44435541	-20.1818064	16.18113558	-30.31720778	0.07207566	0.17383384	5.36088762	4.97997254	0.67638395	-9.61669831	9.61669831	-0.67638395	15.30835227	-8.2252538	26.57282939	-26.57282939	8.2252538	-15.30835227	83.15452091	3.9268382	-83.15452091	-7.60552954	18.01191013	-14.81523909	0.12575503	0.09976482	9.03687053	2.8580515
0.035	-0.85992487	-4.59955913	-9.56300107	0.26227549	1.29179476	-0.22278308	0.15262288	-8.90250935	8.90250935	-0.15262288	14.22447132	-4.96370429	24.51128964	-24.51128964	4.96370429	-14.22447132	58.33575554	3.92591105	-58.33575554	-21.13303957	16.99096458	-26.48199222	0.09611254	0.19451789	7.04037214	5.57252708	0.3851331	-9.6564881	9.6564881	-0.3851331	14.99881716	-8.22166751	26.64726793	-26.64726793	8.22166751	-14.99881716	82.15694621	3.8436686	-82.15694621	-8.60580351	18.19585986	-12.9487791	0.13955002	0.11143013	9.93791871	3.19223805
0.04	-0.67469974	-5.1366601	-10.11065503	0.26189229	1.29090499	-0.22213935	0.94422214	-7.89283076	7.89283076	-0.94422214	15.56104671	-4.17444981	24.61517614	-24.61517614	4.17444981	-15.56104671	64.47037899	4.88463039	-64.47037899	-20.1025799	16.04136804	-31.28144045	0.0664511	0.16967317	4.96004841	4.86077834	0.75196309	-9.6031848	9.6031848	-0.75196309	15.3891869	-8.22221072	26.55308254	-26.55308254	8.22221072	-15.3891869	83.41440056	3.96581519	-83.41440056	-7.94210651	18.28709973	-15.46908535	0.12406452	0.09697451	8.92522409	2.77811513
